<?xml version="1.0" encoding="UTF-8" standalone="no"?>
<!DOCTYPE svg PUBLIC "-//W3C//DTD SVG 1.1//EN" "http://www.w3.org/Graphics/SVG/1.1/DTD/svg11.dtd">
<svg width="100%" height="100%" viewBox="0 0 1081 1081" version="1.1" xmlns="http://www.w3.org/2000/svg" xmlns:xlink="http://www.w3.org/1999/xlink" xml:space="preserve" xmlns:serif="http://www.serif.com/" style="fill-rule:evenodd;clip-rule:evenodd;stroke-linejoin:round;stroke-miterlimit:2;">
    <g>
        <clipPath id="_clip1">
            <path d="M1081,154.816C1081,69.371 1011.63,0 926.184,0L154.816,0C69.371,0 0,69.371 0,154.816L0,926.184C0,1011.63 69.371,1081 154.816,1081L926.184,1081C1011.63,1081 1081,1011.63 1081,926.184L1081,154.816Z"/>
        </clipPath>
        <g clip-path="url(#_clip1)">
            <rect x="0" y="0" width="1081" height="1081" style="fill:rgb(82,150,199);fill-rule:nonzero;"/>
            <path d="M134,1079C134,1078 134,1076 133,1075C132,1073 134,1066 136,1066L139,1066C139,1065 140,1065 141,1066C143,1066 142,1072 140,1072C139,1073 139,1074 140,1077L140,1081L137,1081C134,1081 133,1081 134,1079ZM194,1078C193,1077 193,1075 194,1075C195,1073 195,1068 194,1066C193,1065 193,1064 194,1062C195,1061 195,1058 195,1057C195,1053 195,1051 197,1044C198,1041 198,1035 199,1031C199,1027 199,1022 200,1020C200,1018 200,1011 201,1004C202,997 202,990 203,989L203,984C203,983 204,981 204,978C205,976 206,974 205,974C204,972 204,969 205,968C205,967 206,964 206,961C206,958 207,955 207,955C207,954 208,951 208,947C209,941 211,935 213,935C214,935 214,934 213,933C213,931 214,930 215,928C216,927 217,926 217,925C216,924 224,916 226,916C226,916 227,916 227,917C227,919 230,918 230,916C231,916 231,914 231,913C231,908 237,905 240,908C241,909 241,909 241,908C241,908 242,907 243,907C244,907 250,902 250,900L255,900C259,900 260,900 262,898C263,896 264,895 265,896C266,897 267,897 267,896C268,896 270,896 272,897C275,898 276,898 277,897C279,896 279,896 280,897C282,898 290,899 289,897C289,896 290,896 290,896L294,896C296,895 297,896 298,897C299,898 299,898 298,899L297,900C297,902 299,901 303,897C306,894 310,893 309,896C309,898 311,899 314,897C315,896 316,896 317,897C317,898 318,898 319,897C320,897 323,896 325,895C330,895 330,895 330,897C330,898 330,898 331,898L337,898C343,897 344,898 339,900C338,901 336,902 336,902C336,903 338,903 340,902C341,901 342,901 342,902C342,904 345,903 346,901C347,900 348,899 349,899C352,899 354,897 354,896C353,894 356,892 357,894C358,895 362,897 363,896C364,896 365,895 366,894C366,893 368,892 369,892C372,893 377,897 375,897C375,897 374,898 374,899C374,899 375,900 376,900C376,900 377,900 377,899C377,898 378,898 379,899C381,899 383,899 384,898C385,898 384,897 381,897L377,897L380,895C382,894 383,894 384,894C385,895 386,895 388,896C390,896 391,895 392,893C393,891 395,890 395,893C396,893 397,894 398,894C399,894 397,896 398,897C399,898 399,898 401,896C403,895 405,894 410,893C413,893 416,892 417,892C417,891 420,891 424,892C431,893 430,893 430,892C429,889 431,888 432,890C433,891 434,892 434,892C435,891 435,892 435,892C434,892 434,893 435,894C435,896 441,895 443,893C446,891 451,889 450,891C449,891 450,893 452,894C454,895 456,895 456,894C456,894 458,893 461,893C464,893 465,893 465,892C465,890 466,890 469,890C471,891 473,891 473,892C473,893 477,893 477,892C477,892 476,891 475,890C472,889 449,881 448,881C447,881 445,880 443,879C440,878 438,877 437,877C436,877 435,877 435,876C435,875 434,875 434,875C432,875 413,867 406,863C397,859 403,860 413,864C418,867 425,869 429,870C432,871 436,873 438,874C439,874 442,875 445,875C447,875 449,876 448,876C448,877 449,877 449,877C450,877 451,877 451,876C452,875 453,876 454,877C456,877 457,878 458,877C460,877 460,877 460,879C460,880 460,881 461,881C463,882 470,883 471,882C471,881 476,881 478,882C479,883 480,883 481,882C483,881 492,880 497,882C499,882 500,882 500,881C500,880 500,879 501,877C502,875 502,875 499,875C498,874 496,873 496,872C495,870 492,869 489,870C489,870 488,871 489,873C489,874 489,875 488,874C488,874 487,873 486,873C486,873 485,872 485,871C485,869 483,868 470,865C467,864 465,863 465,863C465,863 464,862 463,862C457,862 450,861 446,859C443,858 439,857 436,857C433,856 430,856 429,856C427,856 427,856 427,857C427,858 426,858 423,858C420,858 418,857 418,856L418,854C418,853 417,852 416,852C415,852 414,852 414,851C414,850 413,850 413,850C412,851 411,851 411,850C411,848 413,846 416,845C417,845 419,844 418,844C418,844 418,843 419,843C420,842 420,841 420,840C420,839 421,838 422,838C422,837 423,836 424,835C425,833 426,832 427,832C429,832 430,832 430,831C430,831 431,830 432,829C433,829 437,827 441,825C447,822 450,818 448,816C448,815 449,815 450,814C452,813 460,805 461,802C464,795 466,790 465,790C464,790 464,789 465,789C467,788 467,787 466,787C465,786 465,785 465,784C466,783 466,778 466,773C467,768 467,763 468,763L468,755C469,752 469,748 470,748C470,747 471,746 471,744C471,740 480,732 485,732C488,732 490,728 490,724C490,720 490,720 493,720C494,721 496,721 498,721C499,722 502,723 504,724C506,725 510,726 511,726C513,727 515,728 516,730L519,732L524,728C527,725 528,724 529,725C529,726 533,727 533,725C533,725 533,724 532,723C531,723 531,722 532,720C533,718 528,713 521,710C514,706 511,703 507,696C505,693 503,691 502,691C500,691 500,688 502,686C503,684 504,682 504,681C504,680 504,678 505,676C506,674 507,670 507,668C507,666 508,664 508,663C509,663 510,661 511,660C512,658 515,656 516,656C518,654 519,653 519,648C519,645 519,642 520,641C522,637 520,630 516,627C514,626 512,623 512,619C512,618 514,616 516,615C521,613 523,610 520,609C518,608 515,608 511,610C510,611 507,612 505,612C504,612 502,613 501,614C500,614 499,615 498,615C497,614 496,615 495,615C494,617 490,616 487,613C485,610 484,608 484,606C484,604 484,602 483,602C483,602 482,601 482,599C481,598 480,596 479,595C478,593 478,593 479,592C479,592 480,590 480,588C480,586 481,584 482,582L484,580L477,578C470,575 463,570 457,564C454,561 454,560 452,561C452,562 451,563 451,563C451,565 447,570 446,569C445,569 445,571 444,571C443,570 439,573 439,576C439,579 437,579 436,576C436,573 436,565 437,564C437,564 439,560 440,557C442,550 442,547 438,547C437,547 434,553 434,556C434,557 433,560 432,562C430,564 429,567 429,568C429,573 432,582 434,587C438,594 441,603 440,608L431,599C429,601 430,629 432,633C433,637 434,644 433,644C432,644 431,643 429,641C429,639 428,638 427,638C426,638 426,643 427,650C431,666 432,674 431,676C430,678 430,678 431,680C434,683 435,687 434,694C434,701 434,701 432,700C430,700 427,699 424,699C421,698 417,697 417,696C414,693 412,686 412,682C412,678 412,677 410,676C409,676 409,675 409,674C410,674 410,673 409,672C408,672 409,671 410,669C411,669 412,667 412,666C412,665 413,663 414,662C415,658 415,658 412,654C409,651 409,650 409,646C409,643 409,642 408,642C407,642 406,642 406,644C406,645 405,646 405,646C404,648 400,645 400,641C399,640 398,637 397,636C396,635 395,632 394,630C393,627 392,625 392,624C391,624 392,623 393,623C396,622 395,620 392,617C386,613 378,605 377,600C376,596 374,593 373,595C372,595 372,595 372,594C372,593 371,592 370,591C369,591 368,589 368,588C368,586 367,584 366,583C363,579 363,577 362,561C362,547 361,546 359,544C356,541 355,532 355,519C356,510 356,507 358,504C359,502 360,499 360,497C360,495 360,494 361,494C362,494 362,500 362,507C362,508 363,510 363,511C365,512 365,512 365,510C365,508 366,507 366,507C368,506 368,494 366,493C364,492 363,485 364,476C365,472 365,467 366,467C367,464 368,469 368,479C368,485 368,491 369,492C370,496 372,494 371,489C371,483 372,477 373,479C374,481 376,479 376,477C375,477 376,475 377,474C378,471 378,470 377,470L374,470C373,470 372,469 373,468C373,467 372,464 371,463C370,461 369,460 370,461C371,462 372,462 372,461C372,461 371,460 371,459C370,458 369,457 369,455C368,454 367,452 367,451C365,449 365,448 367,443C368,441 371,439 371,441L371,446L372,444C373,441 373,440 371,439C369,439 369,439 370,438C374,434 375,425 372,428C369,430 369,427 371,425C372,423 373,422 372,420C371,419 371,418 372,419C373,419 373,419 373,418C372,417 373,416 373,417C374,417 375,418 375,420C376,421 377,422 379,422C381,422 382,422 382,421C382,420 382,420 381,420C380,420 378,415 379,413C379,411 379,411 377,412C374,413 374,413 374,411C374,410 375,408 376,407C379,405 379,405 381,413C381,417 381,417 383,416C390,414 391,413 390,411C389,410 389,410 388,411C386,412 386,411 386,408C387,405 387,403 387,402C388,402 390,402 392,403C395,405 398,405 395,403L394,402C395,402 394,401 393,400C392,400 391,398 392,398C392,397 391,397 391,397C390,397 388,396 386,394L382,390L383,386C385,380 385,380 384,381C380,382 384,377 389,374C392,372 393,373 389,376C387,378 386,379 386,380C387,381 387,381 387,380C387,380 388,379 389,379C390,379 390,380 389,384C389,388 389,389 390,390C391,391 392,392 391,392C391,393 391,393 392,393C393,393 394,391 394,389C394,388 394,386 395,385L395,377C396,370 397,369 400,373C401,374 402,375 402,374C403,374 403,376 403,378C403,380 404,383 406,386C408,390 409,391 411,391C413,391 415,389 415,387C415,387 414,386 412,386C410,385 409,385 409,383C409,381 409,379 408,378C407,375 410,371 412,371C413,371 414,370 414,369C414,368 415,365 416,364C419,360 420,361 418,365C416,370 419,368 422,362C424,357 427,353 429,353C430,353 429,354 428,356C428,358 426,359 426,359C425,359 423,365 423,368C423,369 421,373 419,376C415,380 415,381 417,382C419,383 424,377 425,373C425,371 426,368 427,367C428,366 429,364 429,363C429,361 431,360 438,361C439,361 439,360 437,358C435,356 435,356 436,355C437,354 436,353 434,352C432,352 431,351 431,352C430,352 430,352 430,351C430,350 430,349 431,349C432,349 432,348 432,347C432,346 437,341 438,342C439,342 440,341 442,339C444,337 446,336 449,336C459,334 461,334 461,333C461,333 465,332 469,332L477,332L475,335C474,337 474,337 476,337C478,337 478,336 478,334C478,331 480,331 481,334C481,336 482,336 486,336C493,336 499,335 499,334C499,332 495,332 491,333C488,335 486,332 487,327C487,324 488,323 490,322C493,321 493,319 490,319C489,319 488,319 488,318C488,317 488,317 489,317C490,317 490,316 490,315C489,313 489,313 492,313C494,313 495,313 495,312C495,311 494,311 493,311C492,311 491,310 490,308L489,306L494,306C496,307 499,307 499,308C500,308 502,309 504,309C507,310 507,310 507,308C507,305 509,304 513,305C514,306 515,306 514,307C512,308 513,309 517,309C520,310 521,310 521,313C522,316 526,319 526,317C526,316 525,316 525,316C524,316 524,316 525,315C526,314 529,315 529,316C528,317 531,319 533,319C535,318 535,318 532,315C531,314 530,313 531,313L532,312C532,309 535,311 535,313C536,314 536,315 537,314C539,314 540,316 540,319C540,323 542,323 544,320C545,319 546,317 547,317C550,317 553,316 553,315C553,314 551,311 548,309C545,306 544,305 545,304C546,303 546,303 555,310C557,312 560,314 561,314C562,314 563,315 563,317C563,319 563,319 566,319C567,318 568,318 568,319C568,321 571,320 573,318C574,317 575,316 576,316C576,317 576,318 575,318C572,321 574,321 580,319C580,319 581,320 581,321C581,322 583,324 585,325C591,330 599,331 601,327C601,324 603,325 602,329C602,332 602,332 604,332C606,331 606,331 606,333C606,334 607,336 608,337C609,338 609,338 608,340C606,341 606,341 605,339C604,337 601,335 597,334C585,332 585,332 586,334C587,337 591,340 592,340C594,339 599,341 599,343C599,343 600,345 602,346C603,347 604,348 604,349C603,349 602,348 601,347C599,346 599,346 597,347C597,349 596,350 597,351C597,352 596,354 594,357C591,361 590,362 593,362C594,363 599,361 600,358C601,356 603,357 605,359C606,361 606,362 605,362C603,365 606,365 608,363C610,362 610,361 609,360C607,359 607,359 610,356C613,352 614,350 612,350C611,350 610,349 610,348C610,346 611,346 613,348C614,349 615,349 617,348C618,347 619,346 619,346C619,345 620,345 621,345C622,345 622,344 622,343C621,341 621,341 623,341C624,341 625,341 626,342C627,343 627,343 626,343C625,343 624,344 624,344C624,346 626,347 629,347C629,347 631,348 633,349C636,351 642,352 649,352C651,352 653,353 656,356C658,358 661,360 663,360C667,361 666,363 660,363C656,363 656,363 656,366C656,368 656,370 655,371C652,375 651,378 652,379C654,382 659,381 661,378C662,377 663,376 664,376C665,376 665,377 664,378C661,381 662,383 669,383C675,384 683,386 687,389C694,392 705,405 705,409C705,413 703,411 699,405C696,400 693,397 689,394C680,389 680,389 676,390C671,392 671,392 672,395C673,396 674,398 674,399C674,400 676,402 678,404C681,406 681,407 680,408C679,410 679,410 681,410C683,410 684,410 685,411C685,412 686,412 687,411C689,411 690,411 691,413C692,414 693,415 694,415C696,414 704,415 704,416C704,416 703,417 702,416C701,416 699,416 698,418C698,419 696,420 694,420C689,421 690,423 695,425C698,426 699,427 698,428C698,430 698,430 704,430C708,431 717,446 716,451C715,453 715,455 716,457C717,458 718,462 719,465C719,468 720,471 722,473C725,476 728,484 726,484C726,484 725,485 724,487C723,489 722,490 720,491C718,491 717,492 717,493L717,512C718,533 717,533 728,533C731,533 734,534 734,534C734,536 730,539 728,539C727,539 726,540 725,540C724,541 721,542 718,543C715,543 713,544 713,544C713,544 714,546 716,547C719,549 719,551 716,550C714,550 713,550 712,551C711,552 711,553 714,556C719,563 719,564 715,574C711,584 709,587 703,591C701,592 699,594 699,595C699,595 699,596 698,596C697,596 697,596 697,597C697,599 685,616 682,619C681,620 678,622 677,624C674,626 672,626 667,627C663,627 660,627 660,628C659,629 658,631 653,653C650,668 646,682 642,690C638,698 631,710 630,711C628,714 624,721 623,723C622,724 622,729 622,733C621,737 621,747 620,755C617,782 616,798 616,811C617,824 618,827 622,831C625,833 632,837 634,837C635,837 638,839 640,841C642,843 647,846 651,848C655,850 658,853 658,853C659,854 661,856 664,858C672,863 692,874 696,876C700,878 704,881 704,882C704,884 709,889 711,889C711,889 712,889 712,890C712,891 713,891 714,891C714,891 715,891 715,892C715,893 723,897 726,897C728,897 731,898 732,898C734,899 736,899 739,899C742,898 744,898 746,900C747,900 749,901 750,901C750,901 751,901 751,902C752,904 760,908 762,907C763,907 764,908 765,909C766,910 768,912 769,912C779,912 783,913 789,918C793,920 797,923 800,925C803,928 803,929 801,928C800,928 798,927 797,926C797,925 796,925 796,926L795,925C795,925 794,924 792,924C790,923 787,921 786,919C785,917 784,917 782,917C780,918 778,917 777,917C774,915 772,918 774,919C775,920 776,921 775,922C774,925 776,927 778,927C780,927 782,927 783,928C785,929 785,929 784,930C783,931 783,931 784,932C784,932 785,933 785,934C786,936 788,937 788,935C788,935 789,934 790,933C791,932 792,932 792,933C791,934 794,935 795,934C798,933 803,933 804,934C804,935 805,936 806,935C806,935 807,934 807,933C806,931 808,932 816,939C826,947 846,967 846,969C846,970 849,975 853,981C861,993 868,1008 876,1028C885,1051 890,1064 894,1073L898,1081L194,1081L194,1078ZM323,902C323,901 323,901 322,901C321,901 321,901 321,902C321,903 321,903 322,903C323,903 323,903 323,902ZM363,901C363,900 363,900 362,900C361,900 361,900 361,901C361,902 361,902 362,902C363,902 363,902 363,901ZM418,897C420,897 421,894 419,894C417,894 413,896 413,897C413,898 416,898 418,897ZM429,896C429,895 429,895 428,895C427,895 427,895 427,896L427,897C428,897 428,897 429,896ZM510,873C507,872 506,872 505,873C504,874 505,874 509,874L515,874L510,873ZM418,684C418,683 417,681 416,680C415,679 415,679 415,680C415,683 416,686 418,686C419,686 419,685 418,684ZM425,672C426,672 426,671 426,670C425,670 421,671 421,672C421,673 423,673 425,672ZM549,653C549,652 550,651 552,652C553,652 555,651 557,650C558,649 561,648 563,648C566,647 567,645 564,643C563,642 561,642 560,643C559,644 558,644 557,643C557,642 556,642 556,643C555,643 555,644 555,644C556,645 553,646 552,644C550,642 549,643 549,645C549,646 548,647 548,647C547,647 546,648 545,649C543,650 543,651 544,652C545,654 548,655 549,653ZM416,647C417,646 417,644 416,643C416,641 416,641 413,642C411,644 410,645 412,648C414,652 415,651 416,647ZM539,643C539,642 539,642 538,642C537,642 537,642 537,643C537,644 537,644 538,644C539,644 539,644 539,643ZM391,611C391,611 386,606 385,606C384,607 388,613 390,612C390,612 391,612 391,611ZM566,608C568,607 571,606 573,605C575,604 577,603 578,600C580,595 581,589 578,588C577,588 572,590 569,594C568,595 564,598 560,601C556,604 553,607 553,608C553,610 553,610 557,610C560,610 564,609 566,608ZM400,607C400,606 399,605 398,605C396,605 395,606 395,607C395,607 396,608 398,608C399,608 400,607 400,607ZM383,598C382,595 380,593 379,593C378,593 378,593 380,599C383,606 385,605 383,598ZM709,578C709,577 709,577 708,577C707,577 706,578 706,579C706,580 706,580 707,580C708,580 709,579 709,578ZM407,554C407,554 409,552 411,551C415,549 415,548 413,548C411,548 409,549 408,549C407,550 405,551 404,551C402,551 401,552 403,554C405,555 407,555 407,554ZM433,544C438,540 437,538 431,541C427,542 427,543 428,545C428,548 430,547 433,544ZM721,539L718,539C716,539 715,539 715,540C715,541 720,540 721,539ZM358,525C357,524 357,524 357,526C357,528 357,530 358,531C358,532 359,532 359,530C359,528 359,526 358,525ZM470,519C476,517 476,516 470,516C467,516 464,515 463,515C461,513 459,513 459,514C460,515 459,516 458,517C453,520 460,521 470,519ZM464,508C465,506 464,503 462,500C460,498 459,496 459,495C458,492 456,493 456,495C456,498 458,507 459,509C461,511 463,510 464,508ZM714,496C713,495 713,495 713,496C713,497 714,498 715,497C715,497 715,496 714,496ZM425,481C425,475 426,467 427,467C428,467 430,472 430,474C429,474 430,476 431,477C432,478 432,478 434,477C435,475 435,473 435,469C434,462 435,461 438,467C442,472 443,473 445,471C446,470 448,469 449,469C452,469 452,469 451,465C451,461 451,460 456,461C457,461 458,460 458,460C458,458 462,457 462,459C463,461 465,458 464,455C464,453 464,453 466,454C470,454 470,453 465,448C460,444 457,439 456,434C456,432 455,430 454,430L454,435C455,440 455,441 454,444C453,446 452,448 452,449C452,450 452,450 450,448C449,447 448,446 448,447C448,447 447,448 445,448C442,449 442,449 442,453C442,456 442,457 440,457C438,458 438,458 439,460C441,461 441,461 440,463C438,464 438,464 436,461C434,459 433,457 433,453C433,448 432,446 430,450C430,451 429,452 429,453C428,454 428,457 428,459C428,461 428,463 427,463C426,463 424,454 424,448C424,445 424,444 423,445C419,448 418,475 421,482C423,487 425,486 425,481ZM717,483C717,482 716,482 715,482C715,482 714,482 715,483C715,484 716,484 716,484C717,484 717,484 717,483ZM442,478C442,477 441,476 441,476C440,476 440,477 441,478C442,478 442,479 443,479C443,479 443,478 442,478ZM386,467C386,462 386,462 388,462C391,462 392,460 391,457C390,455 390,454 392,453C393,452 394,451 394,450C394,449 395,447 395,445C398,441 410,426 411,426C412,426 412,427 412,429C412,432 412,433 414,433C414,432 416,432 416,432C417,432 417,431 417,430C417,429 420,423 422,422C423,420 429,411 429,410C428,410 426,410 423,411C418,412 413,416 415,418C415,418 414,419 412,420C410,420 409,421 409,422C409,422 408,424 406,424C405,425 402,428 401,430C398,434 396,435 396,432C396,431 395,430 395,429C394,428 394,428 395,427C396,427 397,426 396,426C395,424 394,425 392,429C392,431 390,434 389,436C388,438 388,442 388,446L388,452L384,452C380,452 380,452 381,455C382,457 382,458 381,460C380,462 380,462 380,460C380,459 379,457 377,456C375,455 374,454 373,453C372,451 372,451 373,454C373,457 377,464 380,466C382,466 383,468 383,470C384,475 386,473 386,467ZM402,462C401,461 400,463 401,464C401,465 401,465 402,464L402,462ZM711,463C711,462 705,456 703,456C700,456 703,461 708,463C711,465 711,465 711,463ZM408,461C408,460 407,458 406,458C405,458 405,459 405,461C405,463 405,464 406,464C407,464 408,462 408,461ZM481,457C481,455 478,456 478,458C477,459 478,459 479,459C480,459 481,458 481,457ZM406,454C405,451 405,451 406,444C406,441 407,438 406,438C405,436 401,443 401,447L401,453C402,453 403,453 403,454C405,457 406,456 406,454ZM474,447L474,441C474,437 473,437 472,439C471,440 471,440 470,438C470,437 469,436 469,437C468,437 469,448 470,450C472,452 474,450 474,447ZM487,447C488,445 488,443 487,442C486,440 484,440 484,442C484,443 484,443 483,442C480,439 480,442 482,446C484,451 486,451 487,447ZM379,444C376,441 376,443 379,447C380,449 381,449 381,448C381,447 380,445 379,444ZM430,447C430,446 430,446 429,446C428,446 428,446 428,447L428,448C429,448 429,448 430,447ZM503,445C503,444 503,444 502,444C501,444 501,445 501,446C501,446 501,447 502,447C503,446 503,445 503,445ZM711,445C711,442 707,439 705,439C704,439 705,440 708,443C710,445 712,447 712,447C712,447 712,446 711,445ZM494,442C493,441 493,441 493,442C493,443 493,444 494,444L494,442ZM499,438C499,437 499,435 498,434C498,432 496,431 496,433C496,437 497,440 499,440C500,440 500,439 499,438ZM433,425C433,424 434,422 434,421C436,418 438,406 437,407C436,407 435,410 433,414C430,420 429,429 431,428C432,428 433,426 433,425ZM453,423C458,419 459,416 457,416C457,416 456,415 456,413C456,411 455,410 455,410C454,410 452,412 450,415C448,418 447,420 447,422C448,423 448,424 447,424C446,425 446,427 447,427C447,427 450,425 453,423ZM521,421C519,418 517,416 517,418C517,420 521,424 523,424C523,424 522,423 521,421ZM408,421C408,420 408,420 407,420C406,420 406,420 406,421L406,422C407,422 407,422 408,421ZM533,419C533,418 529,415 528,415C528,416 531,420 532,420C533,420 533,420 533,419ZM515,415C515,414 515,414 514,414C513,414 513,414 514,415C514,416 514,416 515,416L515,415ZM507,414C507,413 499,398 498,398C497,398 499,405 501,407C502,409 503,411 503,412C503,413 503,414 504,414C505,415 507,415 507,414ZM521,414C521,413 521,413 520,413C519,413 519,413 519,414C519,415 519,415 520,415C521,415 521,415 521,414ZM421,408C425,406 430,403 432,402C435,401 437,400 438,400C439,399 439,399 440,400C442,402 443,401 443,397C443,394 443,393 444,394C445,394 446,395 446,395C447,395 447,385 446,384C445,384 446,383 446,382C449,380 449,374 447,371C446,367 446,367 448,367C449,367 449,366 449,364C449,361 449,361 447,361C446,362 443,362 442,363C439,363 438,366 441,366C443,367 445,371 444,374C444,375 443,376 441,377C439,379 438,380 439,387C439,395 438,397 429,400C426,401 423,403 423,403C423,404 418,406 416,406C415,406 415,406 415,407C416,407 415,409 413,410C409,414 413,414 421,408ZM556,406C555,405 554,405 553,405C553,405 552,405 553,406C553,407 554,407 555,407C555,407 556,407 556,406ZM462,403C463,401 465,400 466,400C468,400 467,398 464,394C462,390 460,389 458,389C457,389 456,391 456,393C456,396 456,399 455,400C454,401 454,401 456,404C459,407 459,407 462,403ZM414,404C414,404 413,402 411,400C406,394 406,394 406,393C406,391 404,389 402,389C401,389 401,392 403,396C404,399 414,407 414,404ZM577,399C577,399 576,398 574,397C572,396 570,395 568,394L566,392L566,394C566,395 567,396 570,398C574,400 577,401 577,399ZM558,395C557,394 556,393 555,393C552,393 553,394 556,396C560,397 560,397 558,395ZM552,391C552,390 550,389 549,390C548,390 548,391 549,391C549,392 552,392 552,391ZM540,386C542,385 545,383 546,382C549,380 548,380 543,381C539,383 535,387 535,388C535,390 536,389 540,386ZM520,382C521,380 523,379 524,379C524,379 525,378 526,376C526,375 527,373 528,371C530,369 530,366 528,366C525,366 518,371 515,375L512,379L514,382C516,383 517,384 517,384C517,384 518,383 520,382ZM532,382C533,381 533,381 535,382C536,383 537,383 539,380C543,377 541,376 538,379C535,381 534,380 535,378C535,376 535,376 533,377C531,377 531,377 531,375C532,374 532,373 531,373C530,373 529,374 529,375C529,377 528,378 528,379C527,380 527,380 528,381C530,383 530,383 532,382ZM468,368C469,364 469,363 469,363C466,363 465,366 465,370C465,377 466,376 468,368ZM438,372C438,371 438,370 437,371C436,371 436,372 436,373C436,373 436,374 437,374C438,374 438,373 438,372ZM515,372C517,371 517,370 516,370C514,369 512,370 512,371C512,373 513,373 515,372ZM610,366C610,365 610,365 609,365C608,365 608,366 608,367C608,367 608,368 609,368C610,367 610,366 610,366ZM503,366C503,365 503,365 502,365C501,365 501,365 501,366C501,367 501,367 502,367C503,367 503,367 503,366ZM531,360C530,358 529,355 529,352C529,348 529,347 528,347C527,347 526,348 527,352C527,359 529,362 531,362C532,362 532,362 531,360ZM468,354C467,352 467,351 468,351C469,351 470,350 471,349C472,347 473,346 474,346C476,346 475,343 473,342C472,342 471,341 470,341C468,340 459,341 459,342C459,343 460,343 463,343C465,343 464,345 460,348C456,352 456,355 461,354C462,354 464,355 465,356C467,358 468,357 468,354ZM448,346C449,344 449,343 449,342C448,341 443,347 444,348C445,350 447,349 448,346ZM567,347C567,345 565,346 564,348C564,349 564,349 565,349C566,349 567,348 567,347ZM540,344C540,341 539,340 538,342C536,343 538,347 540,347C541,347 541,346 540,344ZM592,346C592,345 592,345 591,345C590,345 590,345 590,346L590,347C591,347 591,347 592,346ZM536,343C536,341 532,335 531,335C529,335 528,340 529,342C530,345 536,346 536,343ZM566,340C566,337 563,335 562,337C561,338 561,339 562,341C563,342 563,344 563,344C563,345 564,345 564,344C565,343 566,342 566,340ZM479,341C479,340 478,340 478,341C477,341 476,342 477,342C477,343 479,342 479,341ZM487,340L486,339C485,339 484,340 484,341C484,342 486,342 487,340ZM526,337C526,336 526,336 525,336C524,335 524,335 524,336C524,337 524,337 525,337L526,337ZM543,331C544,330 543,329 542,329C542,328 541,327 541,326C541,323 540,324 540,328C539,331 540,332 541,332C542,332 543,331 543,331ZM560,329L558,329C557,330 558,330 559,330C560,330 561,330 560,329ZM139,1060C138,1060 139,1058 141,1058C143,1056 144,1057 141,1059C140,1060 139,1061 139,1060ZM140,1051C139,1050 139,1047 140,1047C140,1047 141,1047 141,1048C142,1049 141,1052 140,1051ZM128,1010C128,1004 131,981 131,979C132,978 134,965 134,961C134,959 135,956 136,954C137,952 137,950 137,948C136,945 138,936 140,935C141,935 143,934 146,934C149,933 151,933 150,932C150,931 150,931 151,931C153,932 153,934 151,938C150,941 150,941 148,941C145,940 145,940 145,946L145,952C146,953 143,966 139,978C133,992 130,1003 130,1006C130,1007 129,1009 129,1011C128,1012 128,1012 128,1010ZM179,971C179,970 180,970 180,970C181,970 181,970 181,971C181,972 180,972 179,972C179,972 178,972 179,971ZM204,923C198,921 196,919 199,919C201,919 210,922 213,924C214,925 214,925 212,925C211,925 207,924 204,923ZM173,914L177,914C178,915 177,915 175,915C173,915 172,915 173,914ZM393,857C392,856 390,855 390,855C389,853 390,852 391,854C392,854 393,855 394,855C395,855 396,856 396,857C397,859 397,859 393,857ZM397,850C394,848 394,848 396,848C397,848 398,848 398,847C399,846 404,847 405,849C405,850 405,850 404,850C403,849 402,850 401,850C401,852 400,851 397,850ZM372,844C371,843 372,843 372,843C373,843 374,843 374,844C374,845 374,845 373,845C373,845 372,845 372,844ZM403,844C401,841 402,840 406,841C407,842 409,843 409,843C409,844 404,845 403,844ZM385,831L387,831C387,832 386,832 385,832C384,832 384,832 385,831ZM355,471C355,469 356,467 357,466C359,464 359,464 359,465C358,466 358,468 358,468C358,469 357,470 357,472C355,473 355,473 355,471ZM416,349C414,349 413,348 414,347C414,346 420,349 420,350L420,351C420,351 418,350 416,349ZM422,350C422,348 425,347 425,349C425,350 424,351 423,351C422,351 421,351 422,350ZM643,347C640,347 638,345 641,345C643,345 646,347 645,347L643,347ZM607,344C608,342 610,342 611,344C611,344 610,345 609,345C607,346 607,345 607,344ZM479,318C478,317 478,317 479,316C480,315 482,316 482,318C482,320 480,320 479,318ZM544,315C543,313 543,313 545,313C547,313 548,314 548,315C549,316 547,316 544,315ZM586,315C586,314 587,314 587,314C588,314 588,314 588,315C588,316 587,316 586,316C586,316 585,316 586,315ZM597,315C598,314 597,313 597,312C595,311 596,310 598,310C600,310 604,313 604,314C604,315 603,315 602,315C601,314 600,314 600,315C600,316 599,316 598,316C597,316 597,315 597,315ZM562,312C560,310 560,308 562,309C564,309 566,313 565,314C564,314 563,313 562,312ZM588,311C587,311 588,310 589,310C591,309 594,310 593,311C593,312 588,312 588,311ZM537,307C538,305 538,305 540,305C542,305 542,306 540,307C538,310 537,309 537,307ZM498,304C497,302 497,302 499,302C499,302 501,303 503,304L505,306L502,306C501,306 499,305 498,304ZM491,301C491,300 491,300 492,301C493,301 493,301 493,302L492,302C491,302 491,302 491,301ZM459,398C459,398 459,397 460,396C461,394 463,396 462,398C462,399 459,400 459,398Z" style="fill:rgb(41,45,63);fill-rule:nonzero;"/>
        </g>
    </g>
</svg>
