<?xml version="1.0" standalone="no"?>

<!DOCTYPE svg PUBLIC "-//W3C//DTD SVG 20010904//EN"

 "http://www.w3.org/TR/2001/REC-SVG-20010904/DTD/svg10.dtd">

<svg version="1.0" xmlns="http://www.w3.org/2000/svg"

 width="1081.000000pt" height="1081.000000pt" viewBox="0 0 1081.000000 1081.000000"

 preserveAspectRatio="xMidYMid meet">

<path fill="#5296c7" stroke="none" d="
M0 541

L0 0

L541 0

L1081 0

L1081 541

L1081 1081

L541 1081

L0 1081

L0 541

Z

"/>

<path fill="#292d3f" stroke="none" d="
M134 1079

C134 1078 134 1076 133 1075

C132 1073 134 1066 136 1066

C137 1066 138 1066 139 1066

C139 1065 140 1065 141 1066

C143 1066 142 1072 140 1072

C139 1073 139 1074 140 1077

L140 1081

L137 1081

C134 1081 133 1081 134 1079

Z

M194 1078

C193 1077 193 1075 194 1075

C195 1073 195 1068 194 1066

C193 1065 193 1064 194 1062

C195 1061 195 1058 195 1057

C195 1053 195 1051 197 1044

C198 1041 198 1035 199 1031

C199 1027 199 1022 200 1020

C200 1018 200 1011 201 1004

C202 997 202 990 203 989

C203 988 203 986 203 984

C203 983 204 981 204 978

C205 976 206 974 205 974

C204 972 204 969 205 968

C205 967 206 964 206 961

C206 958 207 955 207 955

C207 954 208 951 208 947

C209 941 211 935 213 935

C214 935 214 934 213 933

C213 931 214 930 215 928

C216 927 217 926 217 925

C216 924 224 916 226 916

C226 916 227 916 227 917

C227 919 230 918 230 916

C231 916 231 914 231 913

C231 908 237 905 240 908

C241 909 241 909 241 908

C241 908 242 907 243 907

C244 907 250 902 250 900

C250 900 252 900 255 900

C259 900 260 900 262 898

C263 896 264 895 265 896

C266 897 267 897 267 896

C268 896 270 896 272 897

C275 898 276 898 277 897

C279 896 279 896 280 897

C282 898 290 899 289 897

C289 896 290 896 290 896

C291 896 293 896 294 896

C296 895 297 896 298 897

C299 898 299 898 298 899

C298 899 297 900 297 900

C297 902 299 901 303 897

C306 894 310 893 309 896

C309 898 311 899 314 897

C315 896 316 896 317 897

C317 898 318 898 319 897

C320 897 323 896 325 895

C330 895 330 895 330 897

C330 898 330 898 331 898

C331 898 334 898 337 898

C343 897 344 898 339 900

C338 901 336 902 336 902

C336 903 338 903 340 902

C341 901 342 901 342 902

C342 904 345 903 346 901

C347 900 348 899 349 899

C352 899 354 897 354 896

C353 894 356 892 357 894

C358 895 362 897 363 896

C364 896 365 895 366 894

C366 893 368 892 369 892

C372 893 377 897 375 897

C375 897 374 898 374 899

C374 899 375 900 376 900

C376 900 377 900 377 899

C377 898 378 898 379 899

C381 899 383 899 384 898

C385 898 384 897 381 897

L377 897

L380 895

C382 894 383 894 384 894

C385 895 386 895 388 896

C390 896 391 895 392 893

C393 891 395 890 395 893

C396 893 397 894 398 894

C399 894 399 894 398 895

C397 896 397 896 398 897

C399 898 399 898 401 896

C403 895 405 894 410 893

C413 893 416 892 417 892

C417 891 420 891 424 892

C431 893 430 893 430 892

C429 889 431 888 432 890

C433 891 434 892 434 892

C435 891 435 892 435 892

C434 892 434 893 435 894

C435 896 441 895 443 893

C446 891 451 889 450 891

C449 891 450 893 452 894

C454 895 456 895 456 894

C456 894 458 893 461 893

C464 893 465 893 465 892

C465 890 466 890 469 890

C471 891 473 891 473 892

C473 893 477 893 477 892

C477 892 476 891 475 890

C472 889 449 881 448 881

C447 881 445 880 443 879

C440 878 438 877 437 877

C436 877 435 877 435 876

C435 875 434 875 434 875

C432 875 413 867 406 863

C397 859 403 860 413 864

C418 867 425 869 429 870

C432 871 436 873 438 874

C439 874 442 875 445 875

C447 875 449 876 448 876

C448 877 449 877 449 877

C450 877 451 877 451 876

C452 875 453 876 454 877

C456 877 457 878 458 877

C460 877 460 877 460 879

C460 880 460 881 461 881

C463 882 470 883 471 882

C471 881 476 881 478 882

C479 883 480 883 481 882

C483 881 492 880 497 882

C499 882 500 882 500 881

C500 880 500 879 501 877

C502 875 502 875 499 875

C498 874 496 873 496 872

C495 870 492 869 489 870

C489 870 488 871 489 873

C489 874 489 875 488 874

C488 874 487 873 486 873

C486 873 485 872 485 871

C485 869 483 868 470 865

C467 864 465 863 465 863

C465 863 464 862 463 862

C457 862 450 861 446 859

C443 858 439 857 436 857

C433 856 430 856 429 856

C427 856 427 856 427 857

C427 858 426 858 423 858

C420 858 418 857 418 856

C418 856 418 854 418 854

C418 853 417 852 416 852

C415 852 414 852 414 851

C414 850 413 850 413 850

C412 851 411 851 411 850

C411 848 413 846 416 845

C417 845 419 844 418 844

C418 844 418 843 419 843

C420 842 420 841 420 840

C420 839 421 838 422 838

C422 837 423 836 424 835

C425 833 426 832 427 832

C429 832 430 832 430 831

C430 831 431 830 432 829

C433 829 437 827 441 825

C447 822 450 818 448 816

C448 815 449 815 450 814

C452 813 460 805 461 802

C464 795 466 790 465 790

C464 790 464 789 465 789

C467 788 467 787 466 787

C465 786 465 785 465 784

C466 783 466 778 466 773

C467 768 467 763 468 763

C468 762 468 759 468 755

C469 752 469 748 470 748

C470 747 471 746 471 744

C471 740 480 732 485 732

C488 732 490 728 490 724

C490 720 490 720 493 720

C494 721 496 721 498 721

C499 722 502 723 504 724

C506 725 510 726 511 726

C513 727 515 728 516 730

L519 732

L524 728

C527 725 528 724 529 725

C529 726 533 727 533 725

C533 725 533 724 532 723

C531 723 531 722 532 720

C533 718 528 713 521 710

C514 706 511 703 507 696

C505 693 503 691 502 691

C500 691 500 688 502 686

C503 684 504 682 504 681

C504 680 504 678 505 676

C506 674 507 670 507 668

C507 666 508 664 508 663

C509 663 510 661 511 660

C512 658 515 656 516 656

C518 654 519 653 519 648

C519 645 519 642 520 641

C522 637 520 630 516 627

C514 626 512 623 512 619

C512 618 514 616 516 615

C521 613 523 610 520 609

C518 608 515 608 511 610

C510 611 507 612 505 612

C504 612 502 613 501 614

C500 614 499 615 498 615

C497 614 496 615 495 615

C494 617 490 616 487 613

C485 610 484 608 484 606

C484 604 484 602 483 602

C483 602 482 601 482 599

C481 598 480 596 479 595

C478 593 478 593 479 592

C479 592 480 590 480 588

C480 586 481 584 482 582

L484 580

L477 578

C470 575 463 570 457 564

C454 561 454 560 452 561

C452 562 451 563 451 563

C451 565 447 570 446 569

C445 569 445 569 445 570

C445 571 445 571 444 571

C443 570 439 573 439 576

C439 579 437 579 436 576

C436 573 436 565 437 564

C437 564 439 560 440 557

C442 550 442 547 438 547

C437 547 434 553 434 556

C434 557 433 560 432 562

C430 564 429 567 429 568

C429 573 432 582 434 587

C438 594 441 603 440 608

C440 608 438 606 436 604

C433 601 431 599 431 599

C429 601 430 629 432 633

C433 637 434 644 433 644

C432 644 431 643 429 641

C429 639 428 638 427 638

C426 638 426 643 427 650

C431 666 432 674 431 676

C430 678 430 678 431 680

C434 683 435 687 434 694

C434 701 434 701 432 700

C430 700 427 699 424 699

C421 698 417 697 417 696

C414 693 412 686 412 682

C412 678 412 677 410 676

C409 676 409 675 409 674

C410 674 410 673 409 672

C408 672 409 671 410 669

C411 669 412 667 412 666

C412 665 413 663 414 662

C415 658 415 658 412 654

C409 651 409 650 409 646

C409 643 409 642 408 642

C407 642 406 642 406 644

C406 645 405 646 405 646

C404 648 400 645 400 641

C399 640 398 637 397 636

C396 635 395 632 394 630

C393 627 392 625 392 624

C391 624 392 623 393 623

C396 622 395 620 392 617

C386 613 378 605 377 600

C376 596 374 593 373 595

C372 595 372 595 372 594

C372 593 371 592 370 591

C369 591 368 589 368 588

C368 586 367 584 366 583

C363 579 363 577 362 561

C362 547 361 546 359 544

C356 541 355 532 355 519

C356 510 356 507 358 504

C359 502 360 499 360 497

C360 495 360 494 361 494

C362 494 362 500 362 507

C362 508 363 510 363 511

C365 512 365 512 365 510

C365 508 366 507 366 507

C368 506 368 494 366 493

C364 492 363 485 364 476

C365 472 365 467 366 467

C367 464 368 469 368 479

C368 485 368 491 369 492

C370 496 372 494 371 489

C371 483 372 477 373 479

C374 481 376 479 376 477

C375 477 376 475 377 474

C378 471 378 470 377 470

C376 470 374 470 374 470

C373 470 372 469 373 468

C373 467 372 464 371 463

C370 461 369 460 370 461

C371 462 372 462 372 461

C372 461 371 460 371 459

C370 458 369 457 369 455

C368 454 367 452 367 451

C365 449 365 448 367 443

C368 441 371 439 371 441

C371 441 371 442 371 444

L371 446

L372 444

C373 441 373 440 371 439

C369 439 369 439 370 438

C374 434 375 425 372 428

C369 430 369 427 371 425

C372 423 373 422 372 420

C371 419 371 418 372 419

C373 419 373 419 373 418

C372 417 373 416 373 417

C374 417 375 418 375 420

C376 421 377 422 379 422

C381 422 382 422 382 421

C382 420 382 420 381 420

C380 420 378 415 379 413

C379 411 379 411 377 412

C374 413 374 413 374 411

C374 410 375 408 376 407

C379 405 379 405 381 413

C381 417 381 417 383 416

C390 414 391 413 390 411

C389 410 389 410 388 411

C386 412 386 411 386 408

C387 405 387 403 387 402

C388 402 390 402 392 403

C395 405 398 405 395 403

C394 402 394 402 394 402

C395 402 394 401 393 400

C392 400 391 398 392 398

C392 397 391 397 391 397

C390 397 388 396 386 394

L382 390

L383 386

C385 380 385 380 384 381

C380 382 384 377 389 374

C392 372 393 373 389 376

C387 378 386 379 386 380

C387 381 387 381 387 380

C387 380 388 379 389 379

C390 379 390 380 389 384

C389 388 389 389 390 390

C391 391 392 392 391 392

C391 393 391 393 392 393

C393 393 394 391 394 389

C394 388 394 386 395 385

C395 384 395 381 395 377

C396 370 397 369 400 373

C401 374 402 375 402 374

C403 374 403 376 403 378

C403 380 404 383 406 386

C408 390 409 391 411 391

C413 391 415 389 415 387

C415 387 414 386 412 386

C410 385 409 385 409 383

C409 381 409 379 408 378

C407 375 410 371 412 371

C413 371 414 370 414 369

C414 368 415 365 416 364

C419 360 420 361 418 365

C416 370 419 368 422 362

C424 357 427 353 429 353

C430 353 429 354 428 356

C428 358 426 359 426 359

C425 359 423 365 423 368

C423 369 421 373 419 376

C415 380 415 381 417 382

C419 383 424 377 425 373

C425 371 426 368 427 367

C428 366 429 364 429 363

C429 361 431 360 438 361

C439 361 439 360 437 358

C435 356 435 356 436 355

C437 354 436 353 434 352

C432 352 431 351 431 352

C430 352 430 352 430 351

C430 350 430 349 431 349

C432 349 432 348 432 347

C432 346 437 341 438 342

C439 342 440 341 442 339

C444 337 446 336 449 336

C459 334 461 334 461 333

C461 333 465 332 469 332

L477 332

L475 335

C474 337 474 337 476 337

C478 337 478 336 478 334

C478 331 480 331 481 334

C481 336 482 336 486 336

C493 336 499 335 499 334

C499 332 495 332 491 333

C488 335 486 332 487 327

C487 324 488 323 490 322

C493 321 493 319 490 319

C489 319 488 319 488 318

C488 317 488 317 489 317

C490 317 490 316 490 315

C489 313 489 313 492 313

C494 313 495 313 495 312

C495 311 494 311 493 311

C492 311 491 310 490 308

L489 306

L494 306

C496 307 499 307 499 308

C500 308 502 309 504 309

C507 310 507 310 507 308

C507 305 509 304 513 305

C514 306 515 306 514 307

C512 308 513 309 517 309

C520 310 521 310 521 313

C522 316 526 319 526 317

C526 316 525 316 525 316

C524 316 524 316 525 315

C526 314 529 315 529 316

C528 317 531 319 533 319

C535 318 535 318 532 315

C531 314 530 313 531 313

C531 313 532 312 532 312

C532 309 535 311 535 313

C536 314 536 315 537 314

C539 314 540 316 540 319

C540 323 542 323 544 320

C545 319 546 317 547 317

C550 317 553 316 553 315

C553 314 551 311 548 309

C545 306 544 305 545 304

C546 303 546 303 555 310

C557 312 560 314 561 314

C562 314 563 315 563 317

C563 319 563 319 566 319

C567 318 568 318 568 319

C568 321 571 320 573 318

C574 317 575 316 576 316

C576 317 576 318 575 318

C572 321 574 321 580 319

C580 319 581 320 581 321

C581 322 583 324 585 325

C591 330 599 331 601 327

C601 324 603 325 602 329

C602 332 602 332 604 332

C606 331 606 331 606 333

C606 334 607 336 608 337

C609 338 609 338 608 340

C606 341 606 341 605 339

C604 337 601 335 597 334

C585 332 585 332 586 334

C587 337 591 340 592 340

C594 339 599 341 599 343

C599 343 600 345 602 346

C603 347 604 348 604 349

C603 349 602 348 601 347

C599 346 599 346 597 347

C597 349 596 350 597 351

C597 352 596 354 594 357

C591 361 590 362 593 362

C594 363 599 361 600 358

C601 356 603 357 605 359

C606 361 606 362 605 362

C603 365 606 365 608 363

C610 362 610 361 609 360

C607 359 607 359 610 356

C613 352 614 350 612 350

C611 350 610 349 610 348

C610 346 611 346 613 348

C614 349 615 349 617 348

C618 347 619 346 619 346

C619 345 620 345 621 345

C622 345 622 344 622 343

C621 341 621 341 623 341

C624 341 625 341 626 342

C627 343 627 343 626 343

C625 343 624 344 624 344

C624 346 626 347 629 347

C629 347 631 348 633 349

C636 351 642 352 649 352

C651 352 653 353 656 356

C658 358 661 360 663 360

C667 361 666 363 660 363

C656 363 656 363 656 366

C656 368 656 370 655 371

C652 375 651 378 652 379

C654 382 659 381 661 378

C662 377 663 376 664 376

C665 376 665 377 664 378

C661 381 662 383 669 383

C675 384 683 386 687 389

C694 392 705 405 705 409

C705 413 703 411 699 405

C696 400 693 397 689 394

C680 389 680 389 676 390

C671 392 671 392 672 395

C673 396 674 398 674 399

C674 400 676 402 678 404

C681 406 681 407 680 408

C679 410 679 410 681 410

C683 410 684 410 685 411

C685 412 686 412 687 411

C689 411 690 411 691 413

C692 414 693 415 694 415

C696 414 704 415 704 416

C704 416 703 417 702 416

C701 416 699 416 698 418

C698 419 696 420 694 420

C689 421 690 423 695 425

C698 426 699 427 698 428

C698 430 698 430 704 430

C708 431 717 446 716 451

C715 453 715 455 716 457

C717 458 718 462 719 465

C719 468 720 471 722 473

C725 476 728 484 726 484

C726 484 725 485 724 487

C723 489 722 490 720 491

C718 491 717 492 717 493

C717 494 717 503 717 512

C718 533 717 533 728 533

C731 533 734 534 734 534

C734 536 730 539 728 539

C727 539 726 540 725 540

C724 541 721 542 718 543

C715 543 713 544 713 544

C713 544 714 546 716 547

C719 549 719 551 716 550

C714 550 713 550 712 551

C711 552 711 553 714 556

C719 563 719 564 715 574

C711 584 709 587 703 591

C701 592 699 594 699 595

C699 595 699 596 698 596

C697 596 697 596 697 597

C697 599 685 616 682 619

C681 620 678 622 677 624

C674 626 672 626 667 627

C663 627 660 627 660 628

C659 629 658 631 653 653

C650 668 646 682 642 690

C638 698 631 710 630 711

C628 714 624 721 623 723

C622 724 622 729 622 733

C621 737 621 747 620 755

C617 782 616 798 616 811

C617 824 618 827 622 831

C625 833 632 837 634 837

C635 837 638 839 640 841

C642 843 647 846 651 848

C655 850 658 853 658 853

C659 854 661 856 664 858

C672 863 692 874 696 876

C700 878 704 881 704 882

C704 884 709 889 711 889

C711 889 712 889 712 890

C712 891 713 891 714 891

C714 891 715 891 715 892

C715 893 723 897 726 897

C728 897 731 898 732 898

C734 899 736 899 739 899

C742 898 744 898 746 900

C747 900 749 901 750 901

C750 901 751 901 751 902

C752 904 760 908 762 907

C763 907 764 908 765 909

C766 910 768 912 769 912

C779 912 783 913 789 918

C793 920 797 923 800 925

C803 928 803 929 801 928

C800 928 798 927 797 926

C797 925 796 925 796 926

C796 926 796 926 795 925

C795 925 794 924 792 924

C790 923 787 921 786 919

C785 917 784 917 782 917

C780 918 778 917 777 917

C774 915 772 918 774 919

C775 920 776 921 775 922

C774 925 776 927 778 927

C780 927 782 927 783 928

C785 929 785 929 784 930

C783 931 783 931 784 932

C784 932 785 933 785 934

C786 936 788 937 788 935

C788 935 789 934 790 933

C791 932 792 932 792 933

C791 934 794 935 795 934

C798 933 803 933 804 934

C804 935 805 936 806 935

C806 935 807 934 807 933

C806 931 808 932 816 939

C826 947 846 967 846 969

C846 970 849 975 853 981

C861 993 868 1008 876 1028

C885 1051 890 1064 894 1073

L898 1081

L546 1081

L194 1081

L194 1078

Z

M323 902

C323 901 323 901 322 901

C321 901 321 901 321 902

C321 903 321 903 322 903

C323 903 323 903 323 902

Z

M363 901

C363 900 363 900 362 900

C361 900 361 900 361 901

C361 902 361 902 362 902

C363 902 363 902 363 901

Z

M418 897

C420 897 421 894 419 894

C417 894 413 896 413 897

C413 898 416 898 418 897

Z

M429 896

C429 895 429 895 428 895

C427 895 427 895 427 896

C427 897 427 897 427 897

C428 897 428 897 429 896

Z

M510 873

C507 872 506 872 505 873

C504 874 505 874 509 874

L515 874

L510 873

Z

M418 684

C418 683 417 681 416 680

C415 679 415 679 415 680

C415 683 416 686 418 686

C419 686 419 685 418 684

Z

M425 672

C426 672 426 671 426 670

C425 670 421 671 421 672

C421 673 423 673 425 672

Z

M549 653

C549 652 550 651 552 652

C553 652 555 651 557 650

C558 649 561 648 563 648

C566 647 567 645 564 643

C563 642 561 642 560 643

C559 644 558 644 557 643

C557 642 556 642 556 643

C555 643 555 644 555 644

C556 645 553 646 552 644

C550 642 549 643 549 645

C549 646 548 647 548 647

C547 647 546 648 545 649

C543 650 543 651 544 652

C545 654 548 655 549 653

Z

M416 647

C417 646 417 644 416 643

C416 641 416 641 413 642

C411 644 410 645 412 648

C414 652 415 651 416 647

Z

M539 643

C539 642 539 642 538 642

C537 642 537 642 537 643

C537 644 537 644 538 644

C539 644 539 644 539 643

Z

M391 611

C391 611 386 606 385 606

C384 607 388 613 390 612

C390 612 391 612 391 611

Z

M566 608

C568 607 571 606 573 605

C575 604 577 603 578 600

C580 595 581 589 578 588

C577 588 572 590 569 594

C568 595 564 598 560 601

C556 604 553 607 553 608

C553 610 553 610 557 610

C560 610 564 609 566 608

Z

M400 607

C400 606 399 605 398 605

C396 605 395 606 395 607

C395 607 396 608 398 608

C399 608 400 607 400 607

Z

M383 598

C382 595 380 593 379 593

C378 593 378 593 380 599

C383 606 385 605 383 598

Z

M709 578

C709 577 709 577 708 577

C707 577 706 578 706 579

C706 580 706 580 707 580

C708 580 709 579 709 578

Z

M407 554

C407 554 409 552 411 551

C415 549 415 548 413 548

C411 548 409 549 408 549

C407 550 405 551 404 551

C402 551 401 552 403 554

C405 555 407 555 407 554

Z

M433 544

C438 540 437 538 431 541

C427 542 427 543 428 545

C428 548 430 547 433 544

Z

M721 539

C721 539 720 539 718 539

C716 539 715 539 715 540

C715 541 720 540 721 539

Z

M358 525

C357 524 357 524 357 526

C357 528 357 530 358 531

C358 532 359 532 359 530

C359 528 359 526 358 525

Z

M470 519

C476 517 476 516 470 516

C467 516 464 515 463 515

C461 513 459 513 459 514

C460 515 459 516 458 517

C453 520 460 521 470 519

Z

M464 508

C465 506 464 503 462 500

C460 498 459 496 459 495

C458 492 456 493 456 495

C456 498 458 507 459 509

C461 511 463 510 464 508

Z

M714 496

C713 495 713 495 713 496

C713 497 714 498 715 497

C715 497 715 496 714 496

Z

M425 481

C425 475 426 467 427 467

C428 467 430 472 430 474

C429 474 430 476 431 477

C432 478 432 478 434 477

C435 475 435 473 435 469

C434 462 435 461 438 467

C442 472 443 473 445 471

C446 470 448 469 449 469

C452 469 452 469 451 465

C451 461 451 460 456 461

C457 461 458 460 458 460

C458 458 462 457 462 459

C463 461 465 458 464 455

C464 453 464 453 466 454

C470 454 470 453 465 448

C460 444 457 439 456 434

C456 432 455 430 454 430

C454 430 454 432 454 435

C455 440 455 441 454 444

C453 446 452 448 452 449

C452 450 452 450 450 448

C449 447 448 446 448 447

C448 447 447 448 445 448

C442 449 442 449 442 453

C442 456 442 457 440 457

C438 458 438 458 439 460

C441 461 441 461 440 463

C438 464 438 464 436 461

C434 459 433 457 433 453

C433 448 432 446 430 450

C430 451 429 452 429 453

C428 454 428 457 428 459

C428 461 428 463 427 463

C426 463 424 454 424 448

C424 445 424 444 423 445

C419 448 418 475 421 482

C423 487 425 486 425 481

Z

M717 483

C717 482 716 482 715 482

C715 482 714 482 715 483

C715 484 716 484 716 484

C717 484 717 484 717 483

Z

M442 478

C442 477 441 476 441 476

C440 476 440 477 441 478

C442 478 442 479 443 479

C443 479 443 478 442 478

Z

M386 467

C386 462 386 462 388 462

C391 462 392 460 391 457

C390 455 390 454 392 453

C393 452 394 451 394 450

C394 449 395 447 395 445

C398 441 410 426 411 426

C412 426 412 427 412 429

C412 432 412 433 414 433

C414 432 416 432 416 432

C417 432 417 431 417 430

C417 429 420 423 422 422

C423 420 429 411 429 410

C428 410 426 410 423 411

C418 412 413 416 415 418

C415 418 414 419 412 420

C410 420 409 421 409 422

C409 422 408 424 406 424

C405 425 402 428 401 430

C398 434 396 435 396 432

C396 431 395 430 395 429

C394 428 394 428 395 427

C396 427 397 426 396 426

C395 424 394 425 392 429

C392 431 390 434 389 436

C388 438 388 442 388 446

L388 452

L384 452

C380 452 380 452 381 455

C382 457 382 458 381 460

C380 462 380 462 380 460

C380 459 379 457 377 456

C375 455 374 454 373 453

C372 451 372 451 373 454

C373 457 377 464 380 466

C382 466 383 468 383 470

C384 475 386 473 386 467

Z

M402 462

C401 461 400 463 401 464

C401 465 401 465 402 464

C402 463 402 463 402 462

Z

M711 463

C711 462 705 456 703 456

C700 456 703 461 708 463

C711 465 711 465 711 463

Z

M408 461

C408 460 407 458 406 458

C405 458 405 459 405 461

C405 463 405 464 406 464

C407 464 408 462 408 461

Z

M481 457

C481 455 478 456 478 458

C477 459 478 459 479 459

C480 459 481 458 481 457

Z

M406 454

C405 451 405 451 406 444

C406 441 407 438 406 438

C405 436 401 443 401 447

C401 449 401 451 401 452

C401 452 401 453 401 453

C402 453 403 453 403 454

C405 457 406 456 406 454

Z

M474 447

C474 446 474 443 474 441

C474 437 473 437 472 439

C471 440 471 440 470 438

C470 437 469 436 469 437

C468 437 469 448 470 450

C472 452 474 450 474 447

Z

M487 447

C488 445 488 443 487 442

C486 440 484 440 484 442

C484 443 484 443 483 442

C480 439 480 442 482 446

C484 451 486 451 487 447

Z

M379 444

C376 441 376 443 379 447

C380 449 381 449 381 448

C381 447 380 445 379 444

Z

M430 447

C430 446 430 446 429 446

C428 446 428 446 428 447

C428 448 428 448 428 448

C429 448 429 448 430 447

Z

M503 445

C503 444 503 444 502 444

C501 444 501 445 501 446

C501 446 501 447 502 447

C503 446 503 445 503 445

Z

M711 445

C711 442 707 439 705 439

C704 439 705 440 708 443

C710 445 712 447 712 447

C712 447 712 446 711 445

Z

M494 442

C493 441 493 441 493 442

C493 443 493 444 494 444

C494 443 494 443 494 442

Z

M499 438

C499 437 499 435 498 434

C498 432 496 431 496 433

C496 437 497 440 499 440

C500 440 500 439 499 438

Z

M433 425

C433 424 434 422 434 421

C436 418 438 406 437 407

C436 407 435 410 433 414

C430 420 429 429 431 428

C432 428 433 426 433 425

Z

M453 423

C458 419 459 416 457 416

C457 416 456 415 456 413

C456 411 455 410 455 410

C454 410 452 412 450 415

C448 418 447 420 447 422

C448 423 448 424 447 424

C446 425 446 427 447 427

C447 427 450 425 453 423

Z

M521 421

C519 418 517 416 517 418

C517 420 521 424 523 424

C523 424 522 423 521 421

Z

M408 421

C408 420 408 420 407 420

C406 420 406 420 406 421

C406 422 406 422 406 422

C407 422 407 422 408 421

Z

M533 419

C533 418 529 415 528 415

C528 416 531 420 532 420

C533 420 533 420 533 419

Z

M515 415

C515 414 515 414 514 414

C513 414 513 414 514 415

C514 416 514 416 515 416

C515 416 515 416 515 415

Z

M507 414

C507 413 499 398 498 398

C497 398 499 405 501 407

C502 409 503 411 503 412

C503 413 503 414 504 414

C505 415 507 415 507 414

Z

M521 414

C521 413 521 413 520 413

C519 413 519 413 519 414

C519 415 519 415 520 415

C521 415 521 415 521 414

Z

M421 408

C425 406 430 403 432 402

C435 401 437 400 438 400

C439 399 439 399 440 400

C442 402 443 401 443 397

C443 394 443 393 444 394

C445 394 446 395 446 395

C447 395 447 385 446 384

C445 384 446 383 446 382

C449 380 449 374 447 371

C446 367 446 367 448 367

C449 367 449 366 449 364

C449 361 449 361 447 361

C446 362 443 362 442 363

C439 363 438 366 441 366

C443 367 445 371 444 374

C444 375 443 376 441 377

C439 379 438 380 439 387

C439 395 438 397 429 400

C426 401 423 403 423 403

C423 404 418 406 416 406

C415 406 415 406 415 407

C416 407 415 409 413 410

C409 414 413 414 421 408

Z

M556 406

C555 405 554 405 553 405

C553 405 552 405 553 406

C553 407 554 407 555 407

C555 407 556 407 556 406

Z

M462 403

C463 401 465 400 466 400

C468 400 467 398 464 394

C462 390 460 389 458 389

C457 389 456 391 456 393

C456 396 456 399 455 400

C454 401 454 401 456 404

C459 407 459 407 462 403

Z

M414 404

C414 404 413 402 411 400

C406 394 406 394 406 393

C406 391 404 389 402 389

C401 389 401 392 403 396

C404 399 414 407 414 404

Z

M577 399

C577 399 576 398 574 397

C572 396 570 395 568 394

L566 392

L566 394

C566 395 567 396 570 398

C574 400 577 401 577 399

Z

M558 395

C557 394 556 393 555 393

C552 393 553 394 556 396

C560 397 560 397 558 395

Z

M552 391

C552 390 550 389 549 390

C548 390 548 391 549 391

C549 392 552 392 552 391

Z

M540 386

C542 385 545 383 546 382

C549 380 548 380 543 381

C539 383 535 387 535 388

C535 390 536 389 540 386

Z

M520 382

C521 380 523 379 524 379

C524 379 525 378 526 376

C526 375 527 373 528 371

C530 369 530 366 528 366

C525 366 518 371 515 375

L512 379

L514 382

C516 383 517 384 517 384

C517 384 518 383 520 382

Z

M532 382

C533 381 533 381 535 382

C536 383 537 383 539 380

C543 377 541 376 538 379

C535 381 534 380 535 378

C535 376 535 376 533 377

C531 377 531 377 531 375

C532 374 532 373 531 373

C530 373 529 374 529 375

C529 377 528 378 528 379

C527 380 527 380 528 381

C530 383 530 383 532 382

Z

M468 368

C469 364 469 363 469 363

C466 363 465 366 465 370

C465 377 466 376 468 368

Z

M438 372

C438 371 438 370 437 371

C436 371 436 372 436 373

C436 373 436 374 437 374

C438 374 438 373 438 372

Z

M515 372

C517 371 517 370 516 370

C514 369 512 370 512 371

C512 373 513 373 515 372

Z

M610 366

C610 365 610 365 609 365

C608 365 608 366 608 367

C608 367 608 368 609 368

C610 367 610 366 610 366

Z

M503 366

C503 365 503 365 502 365

C501 365 501 365 501 366

C501 367 501 367 502 367

C503 367 503 367 503 366

Z

M531 360

C530 358 529 355 529 352

C529 348 529 347 528 347

C527 347 526 348 527 352

C527 359 529 362 531 362

C532 362 532 362 531 360

Z

M468 354

C467 352 467 351 468 351

C469 351 470 350 471 349

C472 347 473 346 474 346

C476 346 475 343 473 342

C472 342 471 341 470 341

C468 340 459 341 459 342

C459 343 460 343 463 343

C465 343 464 345 460 348

C456 352 456 355 461 354

C462 354 464 355 465 356

C467 358 468 357 468 354

Z

M448 346

C449 344 449 343 449 342

C448 341 443 347 444 348

C445 350 447 349 448 346

Z

M567 347

C567 345 565 346 564 348

C564 349 564 349 565 349

C566 349 567 348 567 347

Z

M540 344

C540 341 539 340 538 342

C536 343 538 347 540 347

C541 347 541 346 540 344

Z

M592 346

C592 345 592 345 591 345

C590 345 590 345 590 346

C590 347 590 347 590 347

C591 347 591 347 592 346

Z

M536 343

C536 341 532 335 531 335

C529 335 528 340 529 342

C530 345 536 346 536 343

Z

M566 340

C566 337 563 335 562 337

C561 338 561 339 562 341

C563 342 563 344 563 344

C563 345 564 345 564 344

C565 343 566 342 566 340

Z

M479 341

C479 340 478 340 478 341

C477 341 476 342 477 342

C477 343 479 342 479 341

Z

M487 340

C487 340 486 339 486 339

C485 339 484 340 484 341

C484 342 486 342 487 340

Z

M526 337

C526 336 526 336 525 336

C524 335 524 335 524 336

C524 337 524 337 525 337

C526 337 526 337 526 337

Z

M543 331

C544 330 543 329 542 329

C542 328 541 327 541 326

C541 323 540 324 540 328

C539 331 540 332 541 332

C542 332 543 331 543 331

Z

M560 329

C560 329 558 329 558 329

C557 330 558 330 559 330

C560 330 561 330 560 329

Z

M139 1060

C138 1060 139 1058 141 1058

C143 1056 144 1057 141 1059

C140 1060 139 1061 139 1060

Z

M140 1051

C139 1050 139 1047 140 1047

C140 1047 141 1047 141 1048

C142 1049 141 1052 140 1051

Z

M128 1010

C128 1004 131 981 131 979

C132 978 134 965 134 961

C134 959 135 956 136 954

C137 952 137 950 137 948

C136 945 138 936 140 935

C141 935 143 934 146 934

C149 933 151 933 150 932

C150 931 150 931 151 931

C153 932 153 934 151 938

C150 941 150 941 148 941

C145 940 145 940 145 946

C145 949 145 951 145 952

C146 953 143 966 139 978

C133 992 130 1003 130 1006

C130 1007 129 1009 129 1011

C128 1012 128 1012 128 1010

Z

M179 971

C179 970 180 970 180 970

C181 970 181 970 181 971

C181 972 180 972 179 972

C179 972 178 972 179 971

Z

M204 923

C198 921 196 919 199 919

C201 919 210 922 213 924

C214 925 214 925 212 925

C211 925 207 924 204 923

Z

M173 914

C174 914 176 914 177 914

C178 915 177 915 175 915

C173 915 172 915 173 914

Z

M393 857

C392 856 390 855 390 855

C389 853 390 852 391 854

C392 854 393 855 394 855

C395 855 396 856 396 857

C397 859 397 859 393 857

Z

M397 850

C394 848 394 848 396 848

C397 848 398 848 398 847

C399 846 404 847 405 849

C405 850 405 850 404 850

C403 849 402 850 401 850

C401 852 400 851 397 850

Z

M372 844

C371 843 372 843 372 843

C373 843 374 843 374 844

C374 845 374 845 373 845

C373 845 372 845 372 844

Z

M403 844

C401 841 402 840 406 841

C407 842 409 843 409 843

C409 844 404 845 403 844

Z

M385 831

C386 831 386 831 387 831

C387 832 386 832 385 832

C384 832 384 832 385 831

Z

M355 471

C355 469 356 467 357 466

C359 464 359 464 359 465

C358 466 358 468 358 468

C358 469 357 470 357 472

C355 473 355 473 355 471

Z

M416 349

C414 349 413 348 414 347

C414 346 420 349 420 350

C420 351 420 351 420 351

C420 351 418 350 416 349

Z

M422 350

C422 348 425 347 425 349

C425 350 424 351 423 351

C422 351 421 351 422 350

Z

M643 347

C640 347 638 345 641 345

C643 345 646 347 645 347

C645 347 644 347 643 347

Z

M607 344

C608 342 610 342 611 344

C611 344 610 345 609 345

C607 346 607 345 607 344

Z

M479 318

C478 317 478 317 479 316

C480 315 482 316 482 318

C482 320 480 320 479 318

Z

M544 315

C543 313 543 313 545 313

C547 313 548 314 548 315

C549 316 547 316 544 315

Z

M586 315

C586 314 587 314 587 314

C588 314 588 314 588 315

C588 316 587 316 586 316

C586 316 585 316 586 315

Z

M597 315

C598 314 597 313 597 312

C595 311 596 310 598 310

C600 310 604 313 604 314

C604 315 603 315 602 315

C601 314 600 314 600 315

C600 316 599 316 598 316

C597 316 597 315 597 315

Z

M562 312

C560 310 560 308 562 309

C564 309 566 313 565 314

C564 314 563 313 562 312

Z

M588 311

C587 311 588 310 589 310

C591 309 594 310 593 311

C593 312 588 312 588 311

Z

M537 307

C538 305 538 305 540 305

C542 305 542 306 540 307

C538 310 537 309 537 307

Z

M498 304

C497 302 497 302 499 302

C499 302 501 303 503 304

L505 306

L502 306

C501 306 499 305 498 304

Z

M491 301

C491 300 491 300 492 301

C493 301 493 301 493 302

C493 302 493 302 492 302

C491 302 491 302 491 301

Z

M459 398

C459 398 459 397 460 396

C461 394 463 396 462 398

C462 399 459 400 459 398

Z

"/>

</svg>

