<?xml version="1.0" standalone="no"?>
<!DOCTYPE svg PUBLIC "-//W3C//DTD SVG 20010904//EN"
 "http://www.w3.org/TR/2001/REC-SVG-20010904/DTD/svg10.dtd">
<svg version="1.0" xmlns="http://www.w3.org/2000/svg"
 width="700.000000pt" height="700.000000pt" viewBox="0 0 700.000000 700.000000"
 preserveAspectRatio="xMidYMid meet">
<metadata>
Created by potrace 1.14, written by Peter Selinger 2001-2017
</metadata>
<g transform="translate(0.000000,700.000000) scale(0.100000,-0.100000)"
fill="#000000" stroke="none">
<path d="M3220 5041 c0 -10 30 -24 37 -17 3 2 -5 9 -16 16 -12 6 -21 7 -21 1z"/>
<path d="M3530 5031 c0 -7 11 -24 25 -39 29 -31 31 -42 8 -42 -9 0 -27 -10
-40 -22 -22 -21 -23 -21 -23 -2 0 22 -48 70 -58 59 -3 -3 -1 -15 6 -25 18 -30
15 -34 -12 -16 -14 9 -31 13 -39 11 -8 -4 -18 5 -25 20 -6 14 -18 25 -26 25
-8 0 -16 5 -18 12 -7 19 -37 18 -43 -2 -5 -17 -8 -17 -55 -2 -52 16 -78 10
-47 -12 18 -14 24 -32 8 -21 -6 3 -15 -4 -21 -15 -8 -16 -8 -22 4 -26 12 -5
12 -8 -3 -23 -10 -10 -18 -29 -17 -42 1 -21 6 -24 33 -22 18 2 35 -2 38 -7 3
-6 -2 -10 -12 -11 -10 0 -35 -2 -56 -3 -25 -2 -40 2 -46 12 -7 12 -9 12 -14
-2 -4 -9 -12 -16 -18 -16 -8 0 -7 5 2 16 12 15 8 16 -41 11 -89 -8 -164 -27
-186 -48 -11 -10 -26 -19 -32 -19 -7 0 -12 -4 -12 -9 0 -5 -7 -17 -16 -26 -15
-15 -15 -17 3 -21 10 -3 24 -19 31 -36 10 -28 10 -30 -9 -25 -25 7 -47 -17
-68 -74 -15 -41 -44 -70 -56 -57 -3 3 5 23 20 43 14 21 25 44 25 51 0 25 1 29
14 44 21 25 28 40 18 40 -6 0 -22 -20 -36 -45 -30 -50 -37 -56 -29 -22 5 22 5
22 -10 2 -9 -11 -17 -25 -17 -30 0 -6 -9 -16 -21 -23 -16 -11 -19 -19 -14 -45
4 -18 17 -40 28 -49 21 -16 21 -17 3 -24 -23 -9 -54 25 -63 67 -3 16 -14 36
-24 45 -22 20 -26 14 -34 -65 -6 -60 -8 -66 -25 -56 -7 4 -10 22 -8 41 3 25 0
34 -11 34 -11 0 -10 4 4 20 10 11 14 20 8 20 -13 0 -48 -39 -41 -46 3 -3 3
-17 -1 -32 -5 -19 -2 -32 13 -49 11 -13 25 -23 31 -23 7 0 17 -11 23 -25 11
-23 10 -24 -13 -15 -18 7 -25 5 -29 -6 -10 -27 -6 -44 10 -44 22 0 2 -26 -25
-33 -15 -4 -21 2 -26 29 -6 36 -14 41 -33 22 -18 -18 -15 -28 9 -28 12 0 19
-5 16 -12 -2 -7 0 -21 5 -30 7 -14 5 -18 -8 -18 -9 0 -23 8 -30 18 -12 16 -13
15 -14 -9 0 -14 -5 -30 -12 -37 -9 -9 -8 -12 6 -12 15 0 17 -5 10 -27 -4 -16
-7 -41 -7 -58 0 -16 -2 -22 -4 -12 -4 14 -8 16 -19 6 -18 -15 -18 -38 3 -85
17 -40 20 -50 26 -81 2 -10 9 -18 15 -18 15 0 15 -3 7 -37 -4 -16 -11 -25 -16
-22 -10 6 -11 3 -14 -48 -2 -39 -14 -64 -17 -35 -2 28 -6 94 -7 135 -1 28 -4
33 -11 21 -16 -28 -19 -113 -4 -154 17 -50 17 -73 -1 -105 -15 -27 -16 -26
-20 38 -2 43 -15 72 -15 35 0 -11 -7 -36 -15 -56 -21 -50 -16 -218 7 -244 13
-14 19 -44 23 -121 4 -81 11 -111 31 -151 13 -28 31 -54 38 -58 7 -4 23 -26
34 -48 11 -22 42 -60 69 -84 29 -26 43 -46 36 -48 -19 -7 -16 -20 18 -90 34
-69 46 -82 55 -59 10 26 24 18 24 -13 0 -17 4 -33 10 -36 25 -15 28 -41 9 -80
-21 -45 -24 -71 -9 -80 6 -3 10 -20 10 -36 0 -66 43 -109 111 -109 28 0 29 1
29 54 0 34 -5 58 -14 65 -10 8 -12 21 -7 39 4 16 0 57 -10 102 -10 41 -18 91
-18 110 0 35 0 35 16 13 30 -44 34 -32 18 62 -9 56 -14 185 -7 198 2 5 17 -4
33 -19 39 -37 39 -16 0 81 -41 102 -47 139 -28 183 8 20 20 51 27 69 8 20 17
30 26 26 16 -6 12 -41 -11 -97 -9 -21 -14 -51 -11 -68 6 -36 16 -49 16 -20 0
12 8 23 20 27 11 3 32 22 48 40 l28 34 25 -23 c46 -42 110 -85 138 -91 l28 -6
-15 -46 c-14 -41 -14 -48 1 -73 10 -15 17 -37 17 -48 0 -10 11 -31 25 -46 25
-27 45 -28 100 -6 11 4 33 13 48 19 15 6 37 11 47 11 25 0 26 -28 3 -37 -46
-17 -46 -50 -1 -97 17 -18 19 -30 13 -86 -6 -57 -11 -70 -43 -102 -20 -21 -37
-45 -38 -54 -7 -44 -28 -120 -36 -131 -7 -9 -4 -20 10 -35 11 -13 35 -40 53
-61 18 -21 49 -47 69 -57 44 -22 59 -40 66 -74 4 -22 1 -26 -18 -26 -12 0 -32
-10 -45 -22 l-23 -21 -22 20 c-23 21 -147 65 -160 56 -5 -2 -8 -13 -8 -23 0
-30 -11 -50 -28 -50 -37 0 -82 -44 -96 -95 -15 -53 -28 -149 -31 -230 -3 -79
-24 -131 -71 -177 -24 -23 -41 -45 -39 -48 7 -11 -35 -45 -95 -76 -57 -30 -89
-59 -90 -82 0 -7 -11 -17 -24 -24 -25 -11 -43 -38 -26 -38 6 0 19 -9 31 -21
22 -22 56 -33 64 -19 7 11 71 3 132 -15 27 -8 61 -15 76 -15 15 0 40 -6 55
-14 15 -7 44 -16 64 -20 22 -4 42 -15 48 -26 6 -11 15 -20 21 -20 6 0 7 5 4
10 -14 22 26 21 53 -1 44 -38 32 -58 -36 -57 -31 1 -61 0 -67 -2 -5 -1 -38 -2
-72 -1 -49 1 -63 4 -63 16 0 8 -10 16 -22 16 -29 2 -52 5 -58 8 -3 1 -16 4
-29 7 -26 5 -166 54 -224 79 -22 9 -36 12 -33 7 3 -4 45 -25 93 -46 48 -21
106 -46 128 -56 22 -10 77 -29 123 -44 85 -27 148 -55 124 -56 -7 0 -22 5 -33
11 -14 7 -24 7 -33 0 -19 -16 -96 -26 -96 -12 0 13 -36 15 -44 2 -12 -19 -48
-19 -64 0 -18 21 -38 26 -26 7 5 -8 -3 -9 -31 -5 -41 7 -132 -9 -153 -26 -9
-7 -17 -4 -28 12 -15 21 -17 21 -34 6 -12 -11 -26 -14 -43 -10 -35 9 -61 -7
-27 -16 l25 -7 -27 -1 c-39 -1 -38 -1 -35 2 1 2 -4 11 -12 20 -17 21 -45 22
-61 2 -12 -14 -15 -14 -36 0 -21 14 -24 13 -34 -5 -6 -11 -16 -20 -23 -20 -7
0 -18 -5 -25 -12 -6 -6 -23 -12 -36 -13 -23 -1 -24 1 -10 16 14 15 12 16 -15
14 -17 -1 -36 4 -42 11 -6 8 -15 11 -20 8 -18 -11 -119 -15 -119 -5 0 17 -14
13 -38 -9 -25 -24 -32 -25 -32 -5 0 10 -10 15 -30 15 -16 0 -30 -4 -30 -9 0
-5 -12 -7 -27 -5 -86 12 -145 11 -150 -3 -3 -9 -16 -13 -33 -11 -18 1 -38 -7
-60 -25 -19 -16 -39 -25 -49 -22 -18 5 -55 -16 -57 -34 -1 -6 -2 -16 -3 -22 0
-6 -7 -9 -15 -6 -21 8 -58 -24 -80 -69 -10 -22 -24 -50 -31 -64 -7 -14 -16
-45 -19 -70 -3 -25 -8 -56 -11 -70 -3 -14 -8 -50 -10 -80 -6 -60 -9 -86 -19
-170 -3 -30 -9 -87 -11 -125 -6 -88 -15 -167 -19 -174 -7 -11 -18 -115 -20
-176 l-1 -60 2279 -3 c1822 -2 2277 0 2273 10 -4 7 -47 114 -97 238 -130 322
-218 479 -322 576 -135 125 -168 149 -168 124 0 -7 -6 -7 -17 -2 -10 5 -30 7
-45 5 -17 -2 -28 1 -28 8 0 7 -7 5 -19 -5 -19 -17 -20 -17 -32 6 -7 13 -12 25
-11 28 2 5 -3 6 -32 9 -13 1 -29 49 -20 62 5 9 75 -7 83 -18 10 -15 83 -54 89
-48 15 15 -126 93 -176 98 -23 2 -50 11 -60 21 -10 9 -25 16 -34 16 -8 0 -27
9 -42 21 -19 15 -52 24 -109 31 -95 11 -151 39 -211 105 -21 23 -43 43 -48 43
-14 0 -191 101 -232 133 -52 41 -151 105 -210 136 -71 38 -79 67 -72 251 3 80
8 156 10 170 4 25 11 91 21 225 5 61 12 80 55 151 78 128 106 198 146 364 20
85 42 160 48 167 6 6 31 14 56 17 37 4 52 13 83 48 38 42 97 124 97 135 0 3
22 26 48 52 34 32 56 64 70 104 27 70 27 75 2 107 -26 33 -25 50 2 50 20 0 20
1 5 18 -15 17 -13 19 36 36 88 31 100 51 35 55 -24 1 -47 6 -51 10 -5 5 -10
61 -12 126 l-4 117 34 34 c36 36 37 46 5 94 -20 30 -44 106 -45 140 -2 65 -59
150 -101 150 -8 0 -14 4 -14 10 0 5 -12 16 -27 23 l-27 14 37 18 c42 20 49 36
13 29 -14 -2 -31 2 -39 10 -8 8 -26 17 -41 19 -15 1 -27 7 -27 13 0 5 -8 18
-18 29 -10 11 -24 31 -31 44 -11 21 -10 26 6 38 23 17 28 17 74 -7 22 -11 56
-43 77 -70 36 -49 69 -60 38 -13 -50 75 -115 120 -204 138 -51 10 -56 14 -54
36 2 21 1 22 -10 8 -16 -21 -41 -29 -58 -19 -11 7 -10 15 4 45 9 20 17 42 17
50 0 9 10 15 24 15 14 0 28 5 31 10 3 6 -1 10 -10 10 -10 0 -30 11 -47 25 -17
14 -42 25 -58 25 -33 0 -118 26 -138 43 -11 8 -11 12 0 18 9 6 6 9 -10 9 -13
0 -21 -4 -18 -9 3 -5 -6 -16 -20 -26 -20 -13 -28 -14 -40 -4 -9 7 -14 8 -14 1
0 -6 5 -14 11 -17 7 -5 5 -15 -6 -32 -9 -14 -14 -27 -11 -30 7 -7 -13 -33 -24
-33 -5 0 -6 8 -3 19 7 29 -14 35 -43 12 -36 -28 -49 -16 -24 23 11 18 17 36
14 39 -14 14 8 27 28 16 20 -11 20 -11 2 15 -11 14 -32 29 -48 34 -16 4 -36
17 -43 29 -14 21 -14 22 14 17 60 -9 79 -16 101 -36 19 -19 22 -19 22 -5 0 9
-9 26 -20 37 -11 11 -20 27 -20 37 0 14 -2 15 -17 1 -23 -20 -72 -7 -104 27
-13 13 -32 25 -42 25 -12 0 -16 5 -11 13 6 10 4 10 -7 0 -28 -27 -38 -22 -172
86 -12 9 -17 10 -17 2z m-16 -172 c-3 -5 -10 -7 -15 -3 -5 3 -7 10 -3 15 3 5
10 7 15 3 5 -3 7 -10 3 -15z m-58 -46 c19 -26 17 -43 -5 -43 -21 0 -33 22 -25
45 8 19 14 19 30 -2z m207 -6 c3 -8 2 -20 -3 -27 -6 -10 -10 -8 -19 7 -10 19
-6 33 10 33 4 0 9 -6 12 -13z m-596 -29 c9 -7 6 -16 -12 -33 -14 -12 -25 -30
-25 -40 0 -12 -5 -15 -17 -10 -10 4 -26 10 -35 12 -23 7 -23 16 2 38 25 22 25
35 3 36 -10 1 -4 4 12 8 31 8 52 4 72 -11z m430 -8 c1 -11 -2 -18 -8 -15 -11
7 -12 35 -1 35 4 0 8 -9 9 -20z m-597 -10 c-6 -11 -15 -18 -21 -14 -6 4 -6 11
2 20 17 21 31 17 19 -6z m770 -10 c0 -5 -5 -10 -11 -10 -5 0 -7 5 -4 10 3 6 8
10 11 10 2 0 4 -4 4 -10z m-238 -50 c2 -22 0 -40 -4 -40 -5 0 -9 6 -9 13 -1 6
-3 27 -5 45 -2 18 0 31 5 28 5 -3 11 -24 13 -46z m-522 -61 c0 -11 -5 -17 -10
-14 -7 4 -8 -7 -4 -34 4 -22 3 -48 -1 -58 -4 -10 -7 -35 -5 -57 1 -25 -2 -36
-9 -32 -7 4 -11 -1 -11 -13 0 -14 -6 -21 -20 -21 -24 0 -61 -16 -123 -53 -26
-16 -51 -27 -54 -23 -8 8 36 46 54 46 7 0 13 3 13 8 0 4 20 15 45 25 47 20 59
39 57 94 -1 18 4 38 11 45 23 23 26 45 10 68 -13 19 -13 24 -2 31 25 16 49 10
49 -12z m122 -19 c-2 -17 -8 -33 -13 -36 -10 -6 -12 26 -3 50 10 27 21 18 16
-14z m398 6 c0 -2 -6 -19 -14 -37 -25 -59 -79 -89 -93 -52 -7 18 66 93 92 93
8 0 15 -2 15 -4z m-90 -26 c0 -5 -4 -10 -10 -10 -5 0 -10 5 -10 10 0 6 5 10
10 10 6 0 10 -4 10 -10z m123 -49 c14 -11 20 -11 35 0 16 12 16 12 1 -5 -20
-22 -69 -28 -76 -10 -7 18 6 51 15 39 4 -6 15 -16 25 -24z m47 -45 c-19 -13
-37 -22 -39 -20 -9 9 33 44 53 44 17 0 14 -4 -14 -24z m-883 -43 c4 -10 18
-33 31 -50 26 -36 20 -43 -14 -15 -22 19 -44 54 -44 71 0 18 20 13 27 -6z
m376 -15 l20 -26 -27 -27 c-34 -34 -51 -22 -48 32 5 62 20 68 55 21z m567 22
c0 -5 -2 -10 -4 -10 -3 0 -8 5 -11 10 -3 6 -1 10 4 10 6 0 11 -4 11 -10z m40
-32 c0 -6 -6 -5 -15 2 -8 7 -15 14 -15 16 0 2 7 1 15 -2 8 -4 15 -11 15 -16z
m105 -8 c17 -11 24 -20 17 -20 -15 0 -72 28 -72 35 0 11 27 4 55 -15z m-460
-55 c15 -25 25 -50 22 -57 -2 -7 -14 10 -27 37 -13 28 -25 53 -27 58 -2 4 -2
7 1 7 3 0 17 -20 31 -45z m-440 -90 c-16 -57 -37 -76 -29 -27 6 37 37 107 42
93 2 -6 -4 -35 -13 -66z m-49 38 c-8 -16 -26 -43 -40 -62 -14 -19 -26 -41 -26
-48 0 -7 -7 -13 -15 -13 -8 0 -15 6 -15 14 0 33 -20 22 -63 -33 -25 -32 -49
-70 -53 -84 -3 -15 -10 -30 -15 -33 -5 -3 -9 -16 -9 -30 0 -15 -6 -24 -15 -24
-10 0 -15 -10 -15 -29 0 -17 -4 -33 -10 -36 -5 -3 -10 0 -10 8 0 8 -9 22 -21
33 -23 21 -54 74 -42 74 4 0 18 -10 31 -22 l25 -23 -5 28 c-4 21 -1 27 13 27
24 0 31 14 34 64 1 22 10 57 20 76 l18 35 9 -28 10 -27 48 50 c26 27 54 50 61
50 7 0 9 3 6 7 -9 8 26 33 61 43 15 5 28 9 30 9 1 1 -4 -11 -12 -26z m191 -8
c10 -23 8 -28 -21 -50 -18 -14 -35 -25 -38 -25 -11 0 1 49 17 74 21 32 27 32
42 1z m493 -27 c0 -6 -6 -5 -15 2 -8 7 -15 14 -15 16 0 2 7 1 15 -2 8 -4 15
-11 15 -16z m-79 -10 c11 -21 11 -22 -4 -9 -10 7 -17 17 -17 22 0 15 9 10 21
-13z m-411 -110 c0 -9 16 -33 35 -52 38 -39 44 -56 20 -56 -8 0 -12 -6 -9 -14
3 -8 1 -17 -5 -21 -6 -3 -11 -1 -11 6 0 8 -5 7 -16 -2 -9 -8 -24 -14 -33 -14
-10 0 -17 -10 -19 -25 -2 -15 -13 -30 -28 -37 -21 -10 -27 -8 -44 10 -22 23
-26 37 -9 37 6 0 8 9 4 20 -3 11 -2 20 3 20 5 0 12 13 15 29 6 30 38 46 55 29
14 -14 30 39 25 82 -3 26 -1 31 7 20 5 -8 10 -22 10 -32z m270 -1 c0 -18 -2
-19 -10 -7 -13 20 -13 43 0 35 6 -3 10 -16 10 -28z m-601 -57 c-2 -66 -14 -78
-27 -28 -7 29 9 88 24 88 2 0 3 -27 3 -60z m425 54 c18 -7 23 -69 7 -79 -13
-7 -18 3 -25 48 -6 40 -6 40 18 31z m1546 -36 c0 -6 -7 -5 -15 2 -8 7 -15 17
-15 22 0 6 7 5 15 -2 8 -7 15 -17 15 -22z m-1446 -22 c-9 -23 -23 -20 -33 7
-6 16 -4 24 8 28 19 8 34 -13 25 -35z m-694 9 c7 -9 8 -15 2 -15 -5 0 -12 7
-16 15 -3 8 -4 15 -2 15 2 0 9 -7 16 -15z m288 -45 c0 -22 5 -48 11 -57 9 -15
10 -14 11 12 1 33 29 93 30 63 0 -10 0 -20 0 -23 0 -3 6 -18 14 -34 9 -16 12
-32 8 -35 -3 -4 -6 -24 -7 -44 0 -26 -5 -37 -15 -37 -8 0 -15 7 -15 15 -1 8
-6 24 -12 35 -10 17 -12 11 -19 -43 -12 -108 -38 -65 -37 64 0 77 8 124 22
124 5 0 9 -18 9 -40z m362 -30 c0 -5 -5 -10 -11 -10 -5 0 -7 5 -4 10 3 6 8 10
11 10 2 0 4 -4 4 -10z m1482 -25 c15 -21 7 -25 -17 -9 -14 9 -25 23 -25 31 0
13 3 13 18 2 9 -8 20 -18 24 -24z m-1952 1 c0 -23 -16 -27 -17 -5 -1 10 2 19
8 19 5 0 9 -6 9 -14z m345 -246 c24 -36 26 -64 4 -68 -12 -2 -19 9 -28 42 -13
53 -13 56 -3 56 4 0 16 -13 27 -30z m74 -116 c8 -8 -4 -12 -51 -18 -51 -7 -51
-7 -42 19 5 13 15 15 48 10 22 -4 43 -9 45 -11z m-736 -74 c3 -11 1 -18 -4
-14 -5 3 -9 12 -9 20 0 20 7 17 13 -6z m482 -100 c-21 -23 -35 -26 -35 -7 0
13 41 38 49 31 2 -2 -4 -13 -14 -24z m1852 24 c-3 -3 -12 -4 -19 -1 -8 3 -5 6
6 6 11 1 17 -2 13 -5z m-1997 -74 c-26 -20 -42 -24 -53 -13 -9 8 32 31 58 32
18 0 18 -1 -5 -19z m1930 -174 c0 -3 -4 -8 -10 -11 -5 -3 -10 -1 -10 4 0 6 5
11 10 11 6 0 10 -2 10 -4z m-840 -100 c0 -19 -8 -43 -17 -54 -32 -35 -153 -69
-153 -43 0 6 19 25 41 43 23 18 55 45 72 61 41 37 57 35 57 -7z m-1267 -36 c8
-29 -12 -24 -23 6 -13 34 -13 39 4 25 8 -6 16 -21 19 -31z m107 -44 c0 -11
-19 -15 -25 -6 -3 5 1 10 9 10 9 0 16 -2 16 -4z m-70 -21 c7 -8 8 -15 2 -15
-5 0 -15 7 -22 15 -7 8 -8 15 -2 15 5 0 15 -7 22 -15z m174 -249 c-3 -9 -10
-16 -14 -16 -15 0 -20 32 -8 47 10 12 13 12 20 -1 4 -8 5 -21 2 -30z m961 15
c0 -14 -120 -59 -131 -49 -11 12 30 58 48 54 10 -2 20 -1 23 3 8 14 60 7 60
-8z m-895 -165 c0 -2 -7 -7 -16 -10 -8 -3 -12 -2 -9 4 6 10 25 14 25 6z m-50
-89 c0 -5 -4 -5 -10 -2 -5 3 -10 14 -10 23 0 15 2 15 10 2 5 -8 10 -19 10 -23z
m593 -1224 c-7 -2 -19 -2 -25 0 -7 3 -2 5 12 5 14 0 19 -2 13 -5z m-583 -143
c0 -5 -9 -10 -21 -10 -11 0 -17 5 -14 10 3 6 13 10 21 10 8 0 14 -4 14 -10z"/>
<path d="M2977 4433 c-4 -3 -7 -11 -7 -17 0 -6 5 -5 12 2 6 6 9 14 7 17 -3 3
-9 2 -12 -2z"/>
<path d="M3490 5020 c-8 -5 -12 -12 -9 -15 4 -3 12 1 19 10 14 17 11 19 -10 5z"/>
<path d="M3632 4988 c2 -6 10 -14 16 -16 7 -2 10 2 6 12 -7 18 -28 22 -22 4z"/>
<path d="M3820 4990 c0 -5 5 -10 11 -10 5 0 7 5 4 10 -3 6 -8 10 -11 10 -2 0
-4 -4 -4 -10z"/>
<path d="M3867 4971 c3 -13 11 -17 24 -14 23 6 25 19 3 27 -26 10 -32 7 -27
-13z"/>
<path d="M3525 4960 c4 -6 11 -8 16 -5 14 9 11 15 -7 15 -8 0 -12 -5 -9 -10z"/>
<path d="M3795 4960 c-3 -5 -1 -10 4 -10 6 0 11 5 11 10 0 6 -2 10 -4 10 -3 0
-8 -4 -11 -10z"/>
<path d="M3100 4951 c0 -5 5 -13 10 -16 6 -3 10 -2 10 4 0 5 -4 13 -10 16 -5
3 -10 2 -10 -4z"/>
<path d="M3930 4769 c0 -5 5 -7 10 -4 6 3 10 8 10 11 0 2 -4 4 -10 4 -5 0 -10
-5 -10 -11z"/>
<path d="M4150 4760 c0 -5 5 -10 11 -10 5 0 7 5 4 10 -3 6 -8 10 -11 10 -2 0
-4 -4 -4 -10z"/>
<path d="M2690 4740 c20 -13 33 -13 25 0 -3 6 -14 10 -23 10 -15 0 -15 -2 -2
-10z"/>
<path d="M2735 4740 c-3 -5 -1 -10 4 -10 6 0 11 5 11 10 0 6 -2 10 -4 10 -3 0
-8 -4 -11 -10z"/>
<path d="M2305 3970 c-4 -12 -5 -24 -2 -27 3 -2 8 5 12 17 4 12 5 24 2 27 -3
2 -8 -5 -12 -17z"/>
<path d="M2606 1553 c-3 -3 -3 -10 0 -14 7 -12 34 -11 34 0 0 11 -26 22 -34
14z"/>
<path d="M2571 1511 c-9 -6 -10 -11 -2 -15 15 -10 53 3 46 15 -8 11 -26 11
-44 0z"/>
<path d="M2524 1471 c4 -6 16 -16 28 -22 15 -8 18 -8 14 0 -4 6 -16 16 -28 22
-15 8 -18 8 -14 0z"/>
<path d="M1280 1045 c0 -7 43 -23 78 -30 21 -4 18 -1 -13 15 -39 19 -65 25
-65 15z"/>
<path d="M942 955 c-45 -16 -51 -24 -56 -80 -2 -28 -6 -57 -9 -65 -3 -8 -8
-33 -11 -55 -3 -22 -8 -51 -10 -65 -11 -59 -16 -99 -20 -170 -3 -41 -3 -64 0
-50 3 14 26 86 51 160 31 92 47 158 51 208 4 60 8 72 22 72 11 0 20 10 22 25
6 32 1 34 -40 20z"/>
<path d="M910 150 c-9 -6 -10 -10 -3 -10 6 0 15 5 18 10 8 12 4 12 -15 0z"/>
<path d="M870 81 c-16 -32 -7 -76 16 -76 13 0 20 8 21 25 1 14 3 34 5 45 4 27
-28 32 -42 6z"/>
</g>
</svg>
